<svg style="max-width: 100%;" width="164" viewBox="0 0 164 88" fill="none" xmlns="http://www.w3.org/2000/svg">
<path fill-rule="evenodd" clip-rule="evenodd" d="M127.059 70.1397C126.867 68.7371 126.709 67.5279 126.629 66.8884C126.15 62.996 123.788 53.4722 124.401 46.2994C124.866 40.8269 127.06 36.7025 132.241 36.3156C136.95 35.9641 141.053 39.4824 144.264 45.1181C151.175 57.2475 154.283 79.1116 153.517 85.9594C153.433 86.707 152.761 87.2443 152.014 87.1602C151.27 87.0767 150.732 86.4054 150.816 85.6579C151.551 79.0863 148.536 58.1076 141.902 46.463C139.309 41.912 136.246 38.7427 132.442 39.0275C128.687 39.3067 127.447 42.562 127.11 46.5293C126.512 53.5098 128.86 62.7669 129.328 66.5567C129.62 68.9327 130.99 77.9626 130.921 78.7649C130.835 79.7695 130.073 79.982 129.817 80.0329C129.619 80.0726 128.619 80.2068 128.207 79.0418C122.314 62.4338 101.777 41.0269 77.9405 29.8604C54.3135 18.7916 27.3593 17.8194 8.28398 42.1298C7.81954 42.7194 6.96407 42.8223 6.37391 42.3612C5.78431 41.8968 5.68134 41.0413 6.14578 40.4517C26.133 14.9802 54.3404 15.8016 79.0925 27.397C99.9537 37.1689 118.298 54.6209 127.059 70.1397Z" fill="black"></path>
<path fill-rule="evenodd" clip-rule="evenodd" d="M8.38014 40.1654C11.5072 39.4606 14.5984 38.6593 17.7821 38.197C26.2638 36.964 35.338 37.4793 43.438 40.3731C44.1463 40.628 44.5128 41.4062 44.2619 42.1117C44.007 42.8201 43.2288 43.1864 42.5233 42.9355C34.8374 40.1845 26.221 39.7183 18.1742 40.8888C14.5303 41.4197 11.0052 42.4019 7.40948 43.1634C7.22956 43.1992 5.67722 43.5779 5.32765 43.5678C4.51349 43.549 4.18835 43.0213 4.06924 42.7578C3.96698 42.5388 3.89696 42.2522 3.94716 41.892C3.98993 41.5966 4.20281 41.0551 4.64143 40.3916C6.03983 38.262 10.0143 33.7627 10.5885 32.9551C17.1723 23.6989 21.7434 13.9823 26.8118 3.8728C27.1506 3.20294 27.9686 2.93019 28.639 3.26563C29.3095 3.60108 29.5788 4.4186 29.2434 5.08903C24.1116 15.3269 19.4688 25.1602 12.8037 34.5279C12.4109 35.0843 10.0655 38.0458 8.38014 40.1654Z" fill="black"></path>
</svg>