<svg width="735" height="581" viewBox="0 0 735 581" fill="none" xmlns="http://www.w3.org/2000/svg">
<path d="M163.426 577.804L175.843 508.329M203.649 352.757H216.281M203.649 352.757L41.0958 350.098M203.649 352.757L174.864 314.196M203.649 352.757L175.843 508.329M216.281 352.757H230.907V343.117H38.4484M216.281 352.757L248.834 502.678M265.146 577.804L248.834 502.678M41.0958 350.098C40.2212 347.802 39.3374 345.474 38.4484 343.117M41.0958 350.098L12.7887 511.985M0.873047 580.131L12.7887 511.985M174.864 314.196L150.794 281.952C149.764 280.608 148.743 279.279 147.73 277.963M174.864 314.196L27.1342 316.191M147.73 277.963L17.853 281.952M147.73 277.963C138.44 265.897 129.849 254.974 121.874 245.157M17.853 281.952C14.6647 270.387 12.0641 258.952 10.4387 248.045M17.853 281.952C23.5727 302.698 31.1838 323.858 38.4484 343.117M121.874 245.157L10.4387 248.045M121.874 245.157C112.141 233.176 103.326 222.842 95.2801 214.086M10.4387 248.045C8.74533 236.682 8.11047 225.894 8.97244 216.133M95.2801 214.086C59.0297 174.636 38.4003 167.22 19.8209 185.55C13.3777 193.613 10.0359 204.091 8.97244 216.133M95.2801 214.086L8.97244 216.133M175.843 508.329C177.962 501.578 181.313 499.369 193.676 500.018H241.545C245.753 499.961 248.152 499.897 248.834 502.678M175.843 508.329C174.708 500.108 170.512 498.498 159.437 498.689H32.7853C19.4885 498.689 17.4257 502.74 12.7887 511.985" stroke="#898987"/>
<path d="M757.197 535.834V253.531M310.38 535.834V253.531M677.491 535.834V253.531M677.491 253.531H757.197M677.491 253.531V193.34M677.491 253.531H493.936H369.011M757.197 253.531V193.34H677.491M310.38 253.531V193.34H677.491M310.38 253.531H369.011M369.011 253.531V535.834" stroke="#898987"/>
<path d="M486.56 202.039L665.445 203.025V245.604H486.56M486.56 202.039L320.728 201.124V245.604H486.56M486.56 202.039V245.604" stroke="#898987"/>
<path d="M600.703 191.942H551.844C550.32 191.942 548.599 191.127 551.844 188.407C573.955 169.877 590.564 177.258 599.94 186.776C605.029 191.942 600.703 191.942 600.703 191.942Z" stroke="#898987"/>
<path d="M511.372 146.081L521.294 192.784M482.289 192.784L472.367 146.081" stroke="#898987"/>
<path d="M638.157 0.966064C635.023 58.8195 626.825 90.3418 604.965 145.525M638.157 0.966064H418.387L386.592 128.683M638.157 0.966064L608.832 128.683M604.965 145.525H382.399L386.592 128.683M604.965 145.525L608.832 128.683M608.832 128.683H386.592" stroke="#898987"/>
<ellipse cx="2.4413" cy="3.66196" rx="2.4413" ry="3.66196" transform="matrix(0.726133 0.687554 -0.687556 0.726131 519.148 12.1228)" stroke="#898987"/>
<path d="M628.092 193.518C624.882 192.449 623.997 191.827 623.372 190.309C623.059 189.721 622.781 187.584 623.372 185.492L633.151 145.246C634.825 136.061 636.523 133.133 641.515 133.593L653.7 133.962C657.052 133.833 658.443 136.003 656.231 145.196L646.162 188.81C645.687 190.577 645.245 192.053 644.673 193.171" stroke="#898987"/>
<path d="M654.835 134.148C658.188 134.019 661.311 135.644 659.099 144.836L649.03 188.45C648.025 192.191 646.919 192.489 644.673 192.984" stroke="#898987"/>
<path d="M641.429 156.719L638.545 169M635.302 162.411L645.085 163.125" stroke="#898987"/>
</svg>
